<?xml version="1.0" encoding="UTF-8"?>
<svg width="16px" height="16px" viewBox="0 0 16 16" version="1.1" xmlns="http://www.w3.org/2000/svg" xmlns:xlink="http://www.w3.org/1999/xlink">
    <!-- Generator: Sketch 54.1 (76490) - https://sketchapp.com -->
    <title>返回中国地图</title>
    <desc>Created with Sketch.</desc>
    <g id="数字政府" stroke="none" stroke-width="1" fill="none" fill-rule="evenodd">
        <g id="企业分布-方案一" transform="translate(-236.000000, -238.000000)" fill="#666666">
            <g id="返回中国地图" transform="translate(236.000000, 238.000000)">
                <path d="M7.88760898,11.9589633 C10.0929097,11.9554425 11.8842447,10.1584548 11.8807239,7.95323227 C11.8807239,7.37568704 11.7546603,6.80508557 11.5113156,6.28125183 L11.4905234,6.23632274 L10.6745038,6.85443521 L10.6855161,6.88256235 C11.1331053,8.02124205 10.8506212,9.30325672 9.96592683,10.1485183 C9.4089195,10.6827579 8.66664077,10.9805183 7.89486571,10.9792078 C7.06785348,10.9792078 6.29776057,10.6500538 5.72661143,10.0523227 C4.5844305,8.85695844 4.6275992,6.95514914 5.82280703,5.81279218 C6.27841583,5.37744743 6.84688527,5.10130073 7.46943784,5.0124401 L7.46943784,5.73470905 L9.30677769,4.480978 L7.47043539,3.20506601 L7.47043539,3.9649291 C6.54134004,4.06317848 5.67505153,4.4805868 5.01916889,5.14601467 C4.2796481,5.89836675 3.87354541,6.89363325 3.87561876,7.9487335 C3.89242072,10.1599022 5.69224468,11.9589633 7.88760898,11.9589633 Z" id="Fill-1"></path>
                <path d="M7.99632292,0 C3.58802952,0 0.000997737501,3.58648411 1.8248883e-07,7.99479707 C-0.000449695262,10.1307188 0.830904828,12.1389731 2.34092928,13.6496039 C3.85101241,15.1602152 5.85887549,15.9923521 7.99602952,15.9928802 L7.99640116,15.9529193 L7.99640116,15.9928802 L7.99724224,15.9928802 C12.4052618,15.9928802 15.9919806,12.4065526 15.9928999,7.99479707 C15.9870906,3.59213692 12.4007435,0.00565281174 7.99632292,0 Z M7.99794639,1 C11.8504647,1.00442054 14.9886946,4.14233741 14.9935063,7.99479707 L14.9942691,8.00557457 C14.9893009,11.85911 11.8526163,14.9927433 7.99794639,14.9927433 C4.14020556,14.9927433 1.00168233,11.85422 1.00168233,7.99640098 C1.00168233,4.13860147 4.14020556,1 7.99794639,1 Z" id="Fill-3"></path>
            </g>
        </g>
    </g>
</svg>