<?xml version="1.0" encoding="UTF-8"?>
<svg width="18px" height="18px" viewBox="0 0 18 18" version="1.1" xmlns="http://www.w3.org/2000/svg" xmlns:xlink="http://www.w3.org/1999/xlink">
    <!-- Generator: Sketch 54.1 (76490) - https://sketchapp.com -->
    <title>返回上一层</title>
    <desc>Created with Sketch.</desc>
    <g id="数字政府" stroke="none" stroke-width="1" fill="none" fill-rule="evenodd">
        <g id="企业分布-方案一" transform="translate(-235.000000, -213.000000)" fill="#666666" stroke="#666666" stroke-width="0.2">
            <g id="返回上一层" transform="translate(236.000000, 214.000000)">
                <path d="M7.99263955,0 C3.57854698,0 0,3.57818794 0,7.99212342 C0,12.4059467 3.57854698,15.9841346 7.99263955,15.9841346 C12.4070912,15.9841346 15.9853689,12.4059467 15.9853689,7.99212342 C15.9853689,3.57818794 12.4070912,0 7.99263955,0 Z M7.9929986,15.1832146 C4.02962132,15.1832146 0.805049088,11.9456494 0.805049088,7.98579523 C0.805049088,4.02603086 4.02962132,0.804779804 7.9929986,0.804779804 C11.9564432,0.804779804 15.1809257,4.02603086 15.1809257,7.98579523 C15.1809257,11.9456494 11.9564432,15.1832146 7.9929986,15.1832146 Z" id="Fill-1"></path>
                <path d="M11.5909116,7.59492847 L5.06591865,7.59492847 L7.44152595,5.04742777 C7.59739691,4.89139972 7.59739691,4.63858626 7.44152595,4.4825582 C7.28531837,4.32653015 7.03252735,4.32653015 6.87665638,4.4825582 L3.61799719,8.00298457 L6.82652454,11.5481178 C6.90470687,11.6261431 7.00692286,11.6655035 7.10895933,11.6655035 C7.21117532,11.6655035 7.31336886,11.6261431 7.39139411,11.5481178 C7.54751192,11.392359 7.54751192,11.1396353 7.39139411,10.9831809 L5.04031417,8.39394109 L11.5909116,8.39394109 C11.8115456,8.39394109 11.9904404,8.21529313 11.9904404,7.9943899 C11.9903506,7.77402525 11.8115456,7.59492847 11.5909116,7.59492847 Z" id="Fill-2"></path>
            </g>
        </g>
    </g>
</svg>