<?xml version="1.0" encoding="UTF-8"?>
<svg width="15px" height="15px" viewBox="0 0 15 15" version="1.1" xmlns="http://www.w3.org/2000/svg" xmlns:xlink="http://www.w3.org/1999/xlink">
    <!-- Generator: Sketch 59.1 (86144) - https://sketch.com -->
    <title>Search</title>
    <desc>Created with Sketch.</desc>
    <g id="页面-1" stroke="none" stroke-width="1" fill="none" fill-rule="evenodd">
        <g id="首页" transform="translate(-665.000000, -616.000000)" fill="#2BF9FF" fill-rule="nonzero">
            <path d="M671.1,628.2 C667.731063,628.2 665,625.468937 665,622.1 C665,618.731063 667.731063,616 671.1,616 C674.468937,616 677.2,618.731063 677.2,622.1 C677.2,623.531157 676.705352,624.886271 675.816827,625.968298 L679.453553,629.605025 C679.531658,629.68313 679.531658,629.809763 679.453553,629.887868 L678.887868,630.453553 C678.809763,630.531658 678.68313,630.531658 678.605025,630.453553 L674.9683,626.816828 C673.886271,627.705352 672.531157,628.2 671.1,628.2 Z M671.1,627 C673.806195,627 676,624.806195 676,622.1 C676,619.393805 673.806195,617.2 671.1,617.2 C668.393805,617.2 666.2,619.393805 666.2,622.1 C666.2,624.806195 668.393805,627 671.1,627 Z" id="Search"></path>
        </g>
    </g>
</svg>