<?xml version="1.0" encoding="UTF-8"?>
<svg width="15px" height="15px" viewBox="0 0 15 15" version="1.1" xmlns="http://www.w3.org/2000/svg" xmlns:xlink="http://www.w3.org/1999/xlink">
    <!-- Generator: Sketch 59.1 (86144) - https://sketch.com -->
    <title>Scale</title>
    <desc>Created with Sketch.</desc>
    <g id="页面-1" stroke="none" stroke-width="1" fill="none" fill-rule="evenodd">
        <g id="首页" transform="translate(-665.000000, -648.000000)" fill="#2BF9FF" fill-rule="nonzero">
            <path d="M671.1,660.2 C667.731063,660.2 665,657.468937 665,654.1 C665,650.731063 667.731063,648 671.1,648 C674.468937,648 677.2,650.731063 677.2,654.1 C677.2,655.531157 676.705352,656.886271 675.816827,657.968298 L679.453553,661.605025 C679.531658,661.68313 679.531658,661.809763 679.453553,661.887868 L678.887868,662.453553 C678.809763,662.531658 678.68313,662.531658 678.605025,662.453553 L674.9683,658.816828 C673.886271,659.705352 672.531157,660.2 671.1,660.2 Z M671.1,659 C673.806195,659 676,656.806195 676,654.1 C676,651.393805 673.806195,649.2 671.1,649.2 C668.393805,649.2 666.2,651.393805 666.2,654.1 C666.2,656.806195 668.393805,659 671.1,659 Z M668.2,654.7 C668.089543,654.7 668,654.610457 668,654.5 L668,653.7 C668,653.589543 668.089543,653.5 668.2,653.5 L674,653.5 C674.110457,653.5 674.2,653.589543 674.2,653.7 L674.2,654.5 C674.2,654.610457 674.110457,654.7 674,654.7 L668.2,654.7 Z" id="Scale"></path>
        </g>
    </g>
</svg>