<?xml version="1.0" encoding="UTF-8"?>
<svg width="12px" height="20px" viewBox="0 0 12 20" version="1.1" xmlns="http://www.w3.org/2000/svg" xmlns:xlink="http://www.w3.org/1999/xlink">
    <!-- Generator: Sketch 59.1 (86144) - https://sketch.com -->
    <title>Path</title>
    <desc>Created with Sketch.</desc>
    <g id="页面-1" stroke="none" stroke-width="1" fill="none" fill-rule="evenodd">
        <g id="上市企业" transform="translate(-1248.000000, -560.000000)" fill="#18B7D9" fill-rule="nonzero">
            <g id="编组-3" transform="translate(1248.000000, 560.000000)">
                <path d="M11.0107778,8.12041355 C10.3286942,7.57631035 1.6564887,0.230917199 1.6564887,0.230917199 C1.26672665,-0.131818266 0.682083583,-0.0411343995 0.292321535,0.321601065 C0.0974405118,0.502968797 0,0.775020395 0,0.956388127 C0,0.956388127 0,0.956388127 0,0.956388127 C0,0.956388127 0,18.639742 0,19.0931613 C0,19.6372645 0.389762047,20 0.974405118,20 C1.16928614,20 1.46160768,19.9093161 1.55904819,19.7279484 C1.6564887,19.6372645 9.84149169,13.1080262 10.7184563,12.3825553 C11.5954209,11.6570843 11.985183,11.0222973 11.985183,10.1154586 C12.0826235,9.2993038 11.6928614,8.66451674 11.0107778,8.12041355 Z" id="Path"></path>
            </g>
        </g>
    </g>
</svg>