<?xml version="1.0" encoding="UTF-8"?>
<svg width="62px" height="62px" viewBox="0 0 62 62" version="1.1" xmlns="http://www.w3.org/2000/svg" xmlns:xlink="http://www.w3.org/1999/xlink">
    <!-- Generator: Sketch 59.1 (86144) - https://sketch.com -->
    <title>关闭</title>
    <desc>Created with Sketch.</desc>
    <g id="页面-1" stroke="none" stroke-width="1" fill="none" fill-rule="evenodd">
        <g id="上海金融指数1备份-4" transform="translate(-5709.000000, -260.000000)" fill="#00F4FF" fill-rule="nonzero" stroke="#00F8FF" stroke-width="0.8">
            <path d="M5769.30365,320.364901 C5768.87841,320.775249 5768.30981,321.002948 5767.7192,320.999396 C5767.10745,320.997895 5766.5213,320.753392 5766.08948,320.31958 L5740.01398,294.259985 L5713.93849,320.31958 C5713.51582,320.76687 5712.92363,321.013898 5712.30877,320.999396 C5711.70065,321.011574 5711.11322,320.778217 5710.67889,320.351923 C5710.24456,319.925629 5710,319.342274 5710,318.733344 C5710.0015,318.120904 5710.24573,317.534096 5710.67905,317.101787 L5736.75455,290.99687 L5710.72432,264.937275 C5709.85051,264.025461 5709.85051,262.585974 5710.72432,261.67416 C5711.6253,260.77528 5713.08278,260.77528 5713.98376,261.67416 L5740.01398,287.779077 L5766.04421,261.67416 C5766.95789,260.861254 5768.34611,260.902165 5769.21044,261.767471 C5770.07477,262.632776 5770.11564,264.022568 5769.30365,264.937275 L5743.27342,290.99687 L5769.34892,317.101787 C5770.2344,318.016218 5770.21415,319.475442 5769.30365,320.364901 Z" id="关闭"></path>
        </g>
    </g>
</svg>