<?xml version="1.0" encoding="UTF-8"?>
<svg width="15px" height="15px" viewBox="0 0 15 15" version="1.1" xmlns="http://www.w3.org/2000/svg" xmlns:xlink="http://www.w3.org/1999/xlink">
    <!-- Generator: Sketch 59.1 (86144) - https://sketch.com -->
    <title>放大</title>
    <desc>Created with Sketch.</desc>
    <g id="页面-1" stroke="none" stroke-width="1" fill="none" fill-rule="evenodd">
        <g id="首页tiaozheng-" transform="translate(-710.000000, -648.000000)" fill="#2BF9FF" fill-rule="nonzero">
            <path d="M716.1,660.2 C712.731063,660.2 710,657.468937 710,654.1 C710,650.731063 712.731063,648 716.1,648 C719.468937,648 722.2,650.731063 722.2,654.1 C722.2,655.531157 721.705352,656.886271 720.816827,657.968298 L724.453553,661.605025 C724.531658,661.68313 724.531658,661.809763 724.453553,661.887868 L723.887868,662.453553 C723.809763,662.531658 723.68313,662.531658 723.605025,662.453553 L719.9683,658.816828 C718.886271,659.705352 717.531157,660.2 716.1,660.2 Z M716.1,659 C718.806195,659 721,656.806195 721,654.1 C721,651.393805 718.806195,649.2 716.1,649.2 C713.393805,649.2 711.2,651.393805 711.2,654.1 C711.2,656.806195 713.393805,659 716.1,659 Z M713.2,654.7 C713.089543,654.7 713,654.610457 713,654.5 L713,653.7 C713,653.589543 713.089543,653.5 713.2,653.5 L719,653.5 C719.110457,653.5 719.2,653.589543 719.2,653.7 L719.2,654.5 C719.2,654.610457 719.110457,654.7 719,654.7 L713.2,654.7 Z M715.5,651.2 C715.5,651.089543 715.589543,651 715.7,651 L716.5,651 C716.610457,651 716.7,651.089543 716.7,651.2 L716.7,657 C716.7,657.110457 716.610457,657.2 716.5,657.2 L715.7,657.2 C715.589543,657.2 715.5,657.110457 715.5,657 L715.5,651.2 Z" id="放大"></path>
        </g>
    </g>
</svg>