<?xml version="1.0" encoding="UTF-8"?>
<svg width="15px" height="14px" viewBox="0 0 15 14" version="1.1" xmlns="http://www.w3.org/2000/svg" xmlns:xlink="http://www.w3.org/1999/xlink">
    <!-- Generator: Sketch 59.1 (86144) - https://sketch.com -->
    <title>返回</title>
    <desc>Created with Sketch.</desc>
    <g id="页面-1" stroke="none" stroke-width="1" fill="none" fill-rule="evenodd">
        <g id="首页" transform="translate(-665.000000, -582.000000)" fill="#2BF9FF" fill-rule="nonzero">
            <path d="M672.583164,582.05875 L678.823908,588.299494 C678.902241,588.377827 678.902241,588.504831 678.823908,588.583164 L678.256558,589.150514 C678.178226,589.228826 678.051245,589.22883 677.972897,589.150515 L673.04214,584.220472 L673.043076,595.999392 C673.043095,596.080715 672.994237,596.153053 672.901377,596.190143 L672.842499,596.2 L672.040144,596.2 C671.929382,596.2 671.83959,596.1102 671.839566,595.999423 L671.838629,584.222436 L666.90975,589.150526 C666.831412,589.228829 666.704433,589.228824 666.62609,589.150504 L666.05875,588.583164 C665.980417,588.504831 665.980417,588.377827 666.05875,588.299494 L672.299494,582.05875 C672.362161,581.996083 672.455976,581.98355 672.531102,582.02115 L672.583164,582.05875 Z" id="返回" transform="translate(672.441329, 589.100000) scale(-1, 1) rotate(90.000000) translate(-672.441329, -589.100000) "></path>
        </g>
    </g>
</svg>