<?xml version="1.0" encoding="UTF-8"?>
<svg width="31px" height="30px" viewBox="0 0 31 30" version="1.1" xmlns="http://www.w3.org/2000/svg" xmlns:xlink="http://www.w3.org/1999/xlink">
    <!-- Generator: Sketch 59.1 (86144) - https://sketch.com -->
    <title>星形复制备份 2</title>
    <desc>Created with Sketch.</desc>
    <g id="页面-1" stroke="none" stroke-width="1" fill="none" fill-rule="evenodd">
        <g id="上海金融指数舆情" transform="translate(-7217.000000, -690.000000)" fill="#FF4F58">
            <g id="整体" transform="translate(5880.000000, 398.000000)">
                <path d="M1352.5,317.25 L1344.00723,321.714913 C1343.51839,321.971914 1342.91376,321.783968 1342.65676,321.295123 C1342.55442,321.100463 1342.5191,320.877494 1342.55628,320.660737 L1344.17826,311.203899 L1344.17826,311.203899 L1337.30746,304.506529 C1336.91198,304.121028 1336.90388,303.487914 1337.28939,303.092431 C1337.44289,302.934947 1337.64404,302.83246 1337.86167,302.800835 L1347.35688,301.421101 L1347.35688,301.421101 L1351.60326,292.816986 C1351.84769,292.321732 1352.44731,292.118393 1352.94257,292.362815 C1353.13978,292.460146 1353.29941,292.619773 1353.39674,292.816986 L1357.64312,301.421101 L1357.64312,301.421101 L1367.13833,302.800835 C1367.68487,302.880253 1368.06355,303.387696 1367.98413,303.934241 C1367.95251,304.151878 1367.85002,304.35302 1367.69254,304.506529 L1360.82174,311.203899 L1360.82174,311.203899 L1362.44372,320.660737 C1362.53708,321.205073 1362.17149,321.722029 1361.62716,321.81539 C1361.4104,321.852567 1361.18743,321.817252 1360.99277,321.714913 L1352.5,317.25 L1352.5,317.25 Z" id="星形复制备份-2"></path>
            </g>
        </g>
    </g>
</svg>